<?xml version="1.0" encoding="UTF-8" standalone="no"?>
<!-- Created with Inkscape (http://www.inkscape.org/) -->

<svg
   width="200mm"
   height="200mm"
   viewBox="0 0 200 200"
   version="1.1"
   id="svg5"
   inkscape:version="1.1 (c4e8f9e, 2021-05-24)"
   sodipodi:docname="logo.svg"
   xmlns:inkscape="http://www.inkscape.org/namespaces/inkscape"
   xmlns:sodipodi="http://sodipodi.sourceforge.net/DTD/sodipodi-0.dtd"
   xmlns:xlink="http://www.w3.org/1999/xlink"
   xmlns="http://www.w3.org/2000/svg"
   xmlns:svg="http://www.w3.org/2000/svg">
  <sodipodi:namedview
     id="namedview7"
     pagecolor="#ffffff"
     bordercolor="#666666"
     borderopacity="1.0"
     inkscape:pageshadow="2"
     inkscape:pageopacity="0.0"
     inkscape:pagecheckerboard="0"
     inkscape:document-units="mm"
     showgrid="false"
     inkscape:zoom="0.48952004"
     inkscape:cx="260.4592"
     inkscape:cy="-169.55383"
     inkscape:window-width="2560"
     inkscape:window-height="1547"
     inkscape:window-x="0"
     inkscape:window-y="25"
     inkscape:window-maximized="1"
     inkscape:current-layer="layer1" />
  <defs
     id="defs2">
    <linearGradient
       inkscape:collect="always"
       id="linearGradient50171">
      <stop
         style="stop-color:#3e1f05;stop-opacity:1"
         offset="0"
         id="stop50167" />
      <stop
         style="stop-color:#ef8c36;stop-opacity:1"
         offset="1"
         id="stop50169" />
    </linearGradient>
    <linearGradient
       inkscape:collect="always"
       id="linearGradient46512">
      <stop
         style="stop-color:#ec7514;stop-opacity:1;"
         offset="0"
         id="stop46508" />
      <stop
         style="stop-color:#ec7514;stop-opacity:0;"
         offset="1"
         id="stop46510" />
    </linearGradient>
    <linearGradient
       inkscape:collect="always"
       id="linearGradient46329">
      <stop
         style="stop-color:#3e1f05;stop-opacity:1"
         offset="0"
         id="stop46325" />
      <stop
         style="stop-color:#da6e11;stop-opacity:1"
         offset="1"
         id="stop46327" />
    </linearGradient>
    <linearGradient
       inkscape:collect="always"
       id="linearGradient37586">
      <stop
         style="stop-color:#3e1f05;stop-opacity:1"
         offset="0"
         id="stop37582" />
      <stop
         style="stop-color:#f3a867;stop-opacity:0.99049431"
         offset="1"
         id="stop37584" />
    </linearGradient>
    <linearGradient
       inkscape:collect="always"
       xlink:href="#linearGradient37586"
       id="linearGradient40581"
       gradientUnits="userSpaceOnUse"
       x1="24.601925"
       y1="121.22567"
       x2="28.222452"
       y2="120.44073" />
    <linearGradient
       inkscape:collect="always"
       xlink:href="#linearGradient46329"
       id="linearGradient43439"
       gradientUnits="userSpaceOnUse"
       x1="24.601925"
       y1="121.22567"
       x2="28.222452"
       y2="120.44073"
       gradientTransform="rotate(-120,39.269108,131.384)" />
    <linearGradient
       inkscape:collect="always"
       xlink:href="#linearGradient46512"
       id="linearGradient46514"
       x1="21.726675"
       y1="131.84558"
       x2="55.764374"
       y2="131.84558"
       gradientUnits="userSpaceOnUse" />
    <linearGradient
       inkscape:collect="always"
       xlink:href="#linearGradient50171"
       id="linearGradient46553"
       gradientUnits="userSpaceOnUse"
       gradientTransform="rotate(120,39.269218,131.38985)"
       x1="24.601925"
       y1="121.22567"
       x2="28.222452"
       y2="120.44073" />
    <linearGradient
       inkscape:collect="always"
       xlink:href="#linearGradient37586"
       id="linearGradient50387"
       gradientUnits="userSpaceOnUse"
       x1="24.601925"
       y1="121.22567"
       x2="28.222452"
       y2="120.44073" />
  </defs>
  <g
     inkscape:label="Layer 1"
     inkscape:groupmode="layer"
     id="layer1">
    <g
       id="g64580"
       transform="matrix(4.5165792,0,0,4.5165792,-77.389415,-493.46314)">
      <path
         id="path909-3"
         style="fill:#8f480c;fill-opacity:1;stroke-width:0.564999;paint-order:fill markers stroke"
         d="m 53.605695,145.16248 -4.772117,2.75518 -4.772119,2.75519 c -4.483716,2.56313 -5.180073,2.51965 -9.544238,0 l -4.77212,-2.75519 -4.772119,-2.75518 c -4.512603,-2.61968 -4.772119,-3.22625 -4.772119,-8.26556 v -5.51036 -5.51037 c -0.05157,-5.0921 0.407954,-5.7459 4.77212,-8.26555 l 4.772118,-2.75519 4.77212,-2.75518 c 4.211555,-2.51778 5.180072,-2.51966 9.544238,0 l 4.772119,2.75518 4.77212,2.75519 c 4.10436,2.32483 4.772118,3.22624 4.772118,8.26555 v 5.51037 5.51036 c -0.01648,4.95602 -0.407954,5.74591 -4.772121,8.26556 z"
         sodipodi:nodetypes="ccccccccccccccccccc" />
      <path
         style="fill:url(#linearGradient46514);fill-opacity:1;stroke-width:0.0609575"
         d="m 37.183983,148.80778 c -0.228277,-0.0684 -0.391529,-0.22094 -0.532887,-0.49791 -0.208132,-0.4078 -0.354282,-0.40985 -0.800093,-0.0113 -0.273439,0.24448 -0.429684,0.28932 -0.89163,0.25591 -0.685477,-0.0496 -0.974323,-0.46166 -0.772769,-1.10245 0.119143,-0.37879 0.109152,-0.52043 -0.04349,-0.61656 -0.08942,-0.0563 -0.161692,-0.008 -0.457182,0.30739 -0.41673,0.4444 -0.516813,0.47089 -1.49621,0.39612 -0.926522,-0.0707 -1.17514,-0.27392 -1.117099,-0.91297 0.03385,-0.37265 0.09301,-0.46239 0.412258,-0.62526 0.285519,-0.14566 0.336761,-0.23905 0.390168,-0.7111 0.05505,-0.4866 0.01605,-0.62154 -0.277701,-0.96095 -0.285236,-0.32956 -0.318992,-0.58823 -0.111233,-0.85235 0.130799,-0.16629 0.137872,-0.16771 0.635092,-0.12736 0.469266,0.0381 0.511287,0.0317 0.629698,-0.0954 0.167067,-0.17933 0.166162,-0.54781 -0.0025,-1.0353 -0.101404,-0.29302 -0.123283,-0.46957 -0.101075,-0.81562 0.03623,-0.56461 0.152436,-0.75386 0.749888,-1.22134 0.497908,-0.38958 0.784006,-0.75883 0.888433,-1.14664 0.03586,-0.13316 0.06979,-0.69712 0.07542,-1.25324 0.01255,-1.24204 0.05041,-1.33733 0.648175,-1.63162 0.470019,-0.23139 0.550717,-0.32837 0.550717,-0.66182 0,-0.32014 -0.137976,-0.45498 -0.46557,-0.45498 -0.322369,0 -0.421293,0.0837 -0.651229,0.55072 -0.295793,0.60083 -0.386394,0.63616 -1.656771,0.64593 -1.467444,0.0113 -1.66538,0.0969 -2.439803,1.05539 -0.1904,0.23566 -0.436707,0.46602 -0.564392,0.52785 -0.353003,0.17096 -0.966374,0.18433 -1.410165,0.0307 -0.484972,-0.16783 -0.853593,-0.16841 -1.032626,-0.002 -0.127099,0.11841 -0.133464,0.16043 -0.09539,0.6297 0.04034,0.49722 0.03893,0.50429 -0.127359,0.63509 -0.274268,0.21574 -0.5187,0.17521 -0.893468,-0.14815 l -0.325005,-0.28042 -0.472938,0.0347 c -0.573615,0.0421 -0.679252,0.0937 -0.841042,0.41086 -0.190179,0.37278 -0.709704,0.53552 -1.092015,0.34207 -0.312209,-0.15798 -0.40621,-0.4021 -0.446852,-1.16048 -0.02064,-0.38517 -0.01202,-0.79214 0.01917,-0.90436 0.03583,-0.12894 0.186339,-0.32078 0.40891,-0.52117 0.299895,-0.27003 0.342188,-0.33341 0.284722,-0.42671 -0.09611,-0.15604 -0.236197,-0.16667 -0.617156,-0.0469 -0.640794,0.20156 -1.052869,-0.0873 -1.102452,-0.77277 -0.03341,-0.46194 0.01143,-0.61819 0.25591,-0.89163 0.111654,-0.12488 0.23809,-0.29387 0.280968,-0.37553 0.06988,-0.13309 0.06218,-0.16153 -0.07431,-0.27431 -0.08375,-0.0692 -0.235957,-0.17121 -0.338244,-0.22667 -0.325587,-0.17654 -0.404989,-0.37092 -0.430248,-1.05327 -0.03011,-0.81349 0.0475,-1.09056 0.392261,-1.40036 0.147541,-0.13257 0.268256,-0.26616 0.268256,-0.29686 0,-0.0307 -0.05681,-0.13559 -0.12624,-0.2331 -0.325136,-0.45661 -0.250339,-0.85627 0.21287,-1.13743 0.358231,-0.21744 0.357734,-0.34787 -0.0026,-0.68562 -0.339479,-0.31818 -0.449764,-0.5606 -0.449764,-0.98861 0,-0.43006 0.08513,-0.70322 0.283785,-0.91057 0.211451,-0.22071 0.473901,-0.26709 0.860947,-0.15215 0.622607,0.1849 0.770947,-0.0248 0.310734,-0.43924 -0.447182,-0.40271 -0.494432,-0.54795 -0.445603,-1.36971 0.06771,-1.13953 0.299392,-1.44012 1.038789,-1.34774 0.375662,0.0469 0.387686,0.0267 0.237257,-0.39968 -0.243924,-0.69135 0.05593,-1.18724 0.792448,-1.31052 0.43428,-0.0727 0.663609,-0.16142 1.039036,-0.40202 0.653015,-0.41849 1.006608,-0.38244 1.439986,0.14683 0.14235,0.17384 0.36299,0.43218 0.490311,0.57409 0.262543,0.29261 0.426869,0.62054 0.565228,1.12797 0.07644,0.28034 0.131934,0.36861 0.279803,0.44508 0.314324,0.16254 0.666018,-0.0311 0.666018,-0.36667 0,-0.43789 -0.184008,-0.77002 -0.751749,-1.35689 -0.30157,-0.31173 -0.68342,-0.66918 -0.848556,-0.79432 -0.593449,-0.44974 -0.744827,-1.01112 -0.451506,-1.67437 0.259652,-0.58712 0.697159,-0.8843 1.151119,-0.78192 0.329172,0.0742 0.453215,0.16724 0.7996,0.59945 0.180785,0.22558 0.496737,0.56962 0.702115,0.76455 0.320273,0.30396 0.401671,0.35167 0.571968,0.33526 0.167381,-0.0161 0.201671,-0.0464 0.218407,-0.19261 0.01698,-0.14841 -0.05348,-0.24399 -0.487661,-0.66145 -0.279132,-0.26839 -0.620382,-0.56626 -0.758333,-0.66194 -0.295393,-0.20489 -0.450192,-0.49613 -0.450192,-0.847 0,-0.33727 0.10101,-0.51072 0.559293,-0.96043 0.649486,-0.63733 0.996122,-0.69304 1.583847,-0.25454 0.264037,0.197 0.333454,0.22448 0.399685,0.15825 0.06623,-0.0662 0.05821,-0.14314 -0.04621,-0.44282 -0.280297,-0.8045 0.149572,-1.20407 1.109933,-1.03169 0.24592,0.0441 0.605137,0.0982 0.798261,0.12003 0.418877,0.0475 0.643935,0.2117 0.828689,0.60474 0.06977,0.14843 0.187903,0.31263 0.262525,0.3649 0.123334,0.0864 0.14569,0.086 0.245787,-0.005 0.152232,-0.13777 0.137692,-0.39613 -0.04228,-0.75129 -0.183215,-0.36156 -0.191633,-0.57495 -0.03295,-0.83521 0.19093,-0.31313 0.441902,-0.41198 1.049307,-0.41329 0.63527,-0.001 0.788438,0.083 1.038591,0.57198 0.210425,0.41133 0.280392,0.49365 0.419591,0.49365 0.08461,0 0.1378,-0.0862 0.213122,-0.34527 0.136169,-0.46841 0.306694,-0.63005 0.66466,-0.63005 0.165159,0 0.38394,0.0533 0.534775,0.13022 0.368363,0.18793 0.615276,0.16531 1.1419,-0.10461 0.407967,-0.20911 0.506397,-0.23458 0.914364,-0.23665 0.579634,-0.003 0.855838,0.14515 1.006489,0.53962 0.139445,0.36513 0.04636,0.69545 -0.281586,0.99922 -0.13456,0.12464 -0.387792,0.43235 -0.562738,0.6838 -0.174945,0.25145 -0.380711,0.54165 -0.457257,0.6449 -0.174247,0.23503 -0.192673,0.56171 -0.03806,0.67477 0.163295,0.1194 0.186318,0.11054 0.517338,-0.19909 0.343843,-0.32162 0.797563,-1.00223 1.184358,-1.77659 0.399895,-0.8006 0.734704,-1.05081 1.406095,-1.05081 0.79368,0 1.135032,0.51903 0.821857,1.24963 -0.145335,0.33906 -0.154758,0.53692 -0.03048,0.64006 0.128579,0.10671 0.25313,-0.01 0.423974,-0.3959 0.253985,-0.57431 0.658165,-0.77629 1.296774,-0.64804 1.019267,0.2047 1.325811,0.89262 0.742973,1.66732 -0.346869,0.46104 -0.392505,0.66839 -0.377739,1.71624 0.0081,0.5758 -0.01212,0.9543 -0.0554,1.03628 -0.0375,0.071 -0.185939,0.26078 -0.329855,0.42166 -0.143916,0.16087 -0.317946,0.44292 -0.386734,0.62677 -0.280453,0.74957 -0.769121,1.24755 -1.364955,1.39094 -0.09509,0.0229 -0.2391,0.10783 -0.320029,0.18876 -0.13136,0.13136 -0.147144,0.20017 -0.147144,0.64145 0,0.50659 -0.203269,1.64344 -0.424873,2.37624 -0.183741,0.60759 -0.3552,0.81305 -0.890481,1.06707 -0.372444,0.17674 -0.477269,0.25763 -0.545528,0.421 -0.20576,0.49245 0.18002,0.91621 0.684242,0.7516 0.203985,-0.0666 0.258963,-0.13054 0.458187,-0.53286 0.351443,-0.70972 0.560497,-0.82773 2.040719,-1.15195 0.593932,-0.13009 1.027343,-0.18912 1.388711,-0.18912 0.474064,0 0.539672,-0.0144 0.67246,-0.14714 0.08093,-0.0809 0.165868,-0.22494 0.188752,-0.32003 0.143018,-0.59424 0.641618,-1.08459 1.386073,-1.36313 0.181168,-0.0678 0.485385,-0.25974 0.676036,-0.42658 0.190653,-0.16683 0.393047,-0.30893 0.449769,-0.31577 0.05672,-0.007 0.500876,-0.0141 0.987013,-0.0162 1.019712,-0.004 1.246536,-0.0571 1.693014,-0.39296 0.77469,-0.58284 1.46261,-0.27629 1.66731,0.74298 0.12825,0.63861 -0.0737,1.04279 -0.64804,1.29677 -0.3863,0.17085 -0.50261,0.29539 -0.39589,0.42398 0.10314,0.12427 0.301,0.11485 0.64005,-0.0305 0.73633,-0.31563 1.25135,0.0289 1.24829,0.83514 -0.003,0.67095 -0.24737,0.98827 -1.08663,1.40833 -1.00562,0.50333 -2.020868,1.28281 -2.020868,1.55157 0,0.29511 0.491598,0.31079 0.863978,0.0275 0.14506,-0.11033 0.40089,-0.29267 0.56853,-0.4052 0.16763,-0.11252 0.43289,-0.33606 0.58948,-0.49675 0.36842,-0.37808 0.68279,-0.47586 1.06305,-0.33063 0.39496,0.15083 0.54277,0.42694 0.53883,1.00648 -0.003,0.40294 -0.0299,0.51001 -0.22859,0.90248 -0.25803,0.50957 -0.28665,0.8112 -0.10986,1.15774 0.29827,0.58467 0.1297,1.0307 -0.44417,1.1752 -0.52823,0.13301 -0.51124,0.32233 0.0563,0.62752 0.52758,0.28368 0.60773,0.42434 0.60636,1.06407 -10e-4,0.6074 -0.10015,0.85837 -0.41329,1.0493 -0.26025,0.15869 -0.47365,0.15027 -0.83521,-0.0329 -0.1654,-0.0838 -0.38198,-0.1524 -0.48128,-0.1524 -0.17092,0 -0.37212,0.13127 -0.37212,0.24277 0,0.077 0.36284,0.36681 0.45929,0.36681 0.0463,0 0.19237,0.1029 0.32458,0.22868 0.19811,0.18845 0.24695,0.28227 0.27766,0.53338 0.0205,0.16758 0.0644,0.47244 0.0975,0.67747 0.13842,0.85755 0.0314,1.22311 -0.39953,1.36535 -0.17327,0.0572 -0.26762,0.0522 -0.4975,-0.0261 -0.58488,-0.19929 -0.72448,-0.072 -0.37971,0.3463 0.42108,0.51084 0.36422,0.88205 -0.2319,1.51397 -0.46802,0.49613 -0.64466,0.60329 -0.994411,0.60329 -0.362835,0 -0.62664,-0.14871 -0.901738,-0.50831 -0.132376,-0.17304 -0.433925,-0.51547 -0.670106,-0.76096 -0.361363,-0.3756 -0.456574,-0.44323 -0.600723,-0.42671 -0.144103,0.0165 -0.174353,0.0514 -0.190536,0.21955 -0.01684,0.17512 0.03226,0.25343 0.396227,0.63179 0.228501,0.23754 0.573005,0.55365 0.765558,0.70247 0.372247,0.2877 0.464597,0.4145 0.537576,0.73807 0.149464,0.66271 -0.640143,1.33709 -1.501526,1.28241 -0.414877,-0.0263 -0.593851,-0.13355 -0.929256,-0.55667 -0.111122,-0.14019 -0.437635,-0.4949 -0.725584,-0.78825 -0.569579,-0.58026 -1.002032,-0.83884 -1.400228,-0.83724 -0.265521,0.001 -0.339025,0.0383 -0.434586,0.2199 -0.162635,0.30913 0.08653,0.64704 0.559068,0.7582 0.431633,0.10154 0.717502,0.25541 1.101147,0.5927 0.179833,0.15811 0.437447,0.37629 0.572475,0.48485 0.456842,0.3673 0.47892,0.79633 0.07185,1.39611 -0.170772,0.25162 -0.270303,0.48908 -0.340943,0.81344 -0.119258,0.54759 -0.279492,0.8598 -0.511657,0.99694 -0.212907,0.12577 -0.545427,0.12967 -0.832418,0.01 -0.120361,-0.0503 -0.272325,-0.0914 -0.337696,-0.0914 -0.108,0 -0.11516,0.0296 -0.0784,0.32383 0.02902,0.23228 0.01362,0.38809 -0.05451,0.55113 -0.137571,0.32926 -0.441696,0.44231 -1.328576,0.49389 -0.833831,0.0485 -0.911629,0.0224 -1.339025,-0.44905 -0.282431,-0.31155 -0.426308,-0.35355 -0.505358,-0.14755 -0.01947,0.0508 0.0074,0.25736 0.05963,0.4591 0.113873,0.43944 0.07825,0.64769 -0.147865,0.86431 -0.205229,0.19663 -0.479517,0.28168 -0.90837,0.28168 -0.428014,0 -0.670428,-0.11029 -0.988613,-0.44976 -0.32365,-0.34531 -0.502071,-0.36841 -0.646011,-0.0836 -0.273598,0.54132 -0.537783,0.62779 -1.070663,0.35046 l -0.37161,-0.19341 -0.286447,0.30033 c -0.184743,0.19369 -0.357874,0.31461 -0.487614,0.34055 -0.279284,0.0559 -1.276748,0.0408 -1.487824,-0.0224 z m 1.184715,-1.06932 c 0.13248,-0.11989 0.156277,-0.47117 0.05549,-0.81904 -0.0379,-0.13082 -0.04597,-0.55056 -0.02092,-1.08829 0.0376,-0.80711 0.05233,-0.88906 0.189032,-1.05152 0.310049,-0.36847 0.990819,-0.15497 0.990819,0.31074 0,0.10322 -0.07102,0.32781 -0.157816,0.4991 -0.115662,0.22825 -0.172605,0.46776 -0.213186,0.89669 -0.08716,0.92125 0.03675,1.13427 0.553687,0.95188 0.463034,-0.16336 0.497495,-0.26475 0.199719,-0.58759 -0.377348,-0.40911 -0.229818,-0.96689 0.255737,-0.96689 0.259764,0 0.449243,0.14978 0.582373,0.46036 0.122198,0.28508 0.285841,0.41934 0.587701,0.48218 0.106061,0.0221 0.347678,0.17565 0.536926,0.34125 0.42531,0.37218 0.608955,0.39456 0.736327,0.0897 0.04858,-0.11626 0.08833,-0.33037 0.08833,-0.47578 0,-0.14542 0.08229,-0.6409 0.182873,-1.10108 0.100579,-0.46017 0.182872,-0.90137 0.182872,-0.98044 0,-0.24559 -0.192316,-0.39609 -0.788274,-0.61687 -0.321911,-0.11926 -0.716304,-0.31973 -0.896191,-0.45555 -0.351249,-0.2652 -1.094021,-1.2511 -1.309407,-1.73802 -0.232528,-0.52566 -0.04344,-1.13115 0.477288,-1.52832 0.318166,-0.24268 0.383068,-0.46123 0.383068,-1.28992 0,-0.74983 -0.09588,-1.28181 -0.285833,-1.58602 -0.05702,-0.0913 -0.407506,-0.4815 -0.77885,-0.86705 -0.456583,-0.47406 -0.742185,-0.82929 -0.88216,-1.09724 -0.234615,-0.44911 -0.272633,-0.48543 -0.50947,-0.48673 -0.349228,-0.002 -0.572571,0.41497 -0.401707,0.74981 0.03737,0.0732 0.447897,0.50346 0.912284,0.95607 0.993334,0.96815 1.1572,1.24326 1.202056,2.01812 0.03539,0.6114 -0.07493,0.93627 -0.568763,1.6749 -0.21231,0.31755 -0.418511,0.67581 -0.458224,0.79614 -0.112888,0.34206 -0.03688,0.67207 0.242736,1.05396 0.136636,0.18661 0.417202,0.62274 0.623478,0.96917 0.419799,0.70504 0.53213,0.8109 1.376761,1.29745 0.666935,0.38419 0.868759,0.61097 0.868759,0.97621 0,0.17028 -0.04557,0.28341 -0.167634,0.41616 -0.344459,0.37462 -0.765042,0.26373 -1.01661,-0.26804 -0.140059,-0.29606 -0.223113,-0.38198 -0.6016,-0.62233 -0.614212,-0.39004 -0.753022,-0.53512 -1.022636,-1.06882 -0.246116,-0.48719 -0.48649,-0.78141 -0.638394,-0.78141 -0.05052,0 -0.08867,0.0573 -0.08867,0.13315 0,0.45842 -0.856192,1.38153 -1.594627,1.71926 -0.4809,0.21994 -0.596439,0.32163 -0.719973,0.63367 -0.247031,0.624 -1.099024,0.56095 -1.099024,-0.0813 0,-0.42978 0.20587,-0.62408 1.371546,-1.29447 0.534666,-0.3075 0.624194,-0.3882 0.906522,-0.8172 0.257702,-0.39158 0.501528,-0.51495 0.893736,-0.45224 0.232415,0.0372 0.233139,0.0366 0.183781,-0.13547 -0.02725,-0.095 -0.117142,-0.28021 -0.19975,-0.4115 -0.226569,-0.36011 -0.310102,-0.67443 -0.273496,-1.0291 0.04158,-0.40287 0.327177,-1.03325 0.670957,-1.48096 0.343635,-0.44752 0.438454,-0.6945 0.428861,-1.11706 -0.01351,-0.59507 -0.245689,-0.94001 -1.203595,-1.78814 -0.582331,-0.51559 -0.801566,-0.80981 -0.928315,-1.24581 -0.08155,-0.28053 -0.08539,-0.38715 -0.02384,-0.6622 0.09813,-0.43847 0.356717,-0.69422 0.876997,-0.86736 0.437164,-0.14548 0.549708,-0.26476 0.615123,-0.65195 0.05794,-0.34294 -0.08222,-0.67316 -0.31,-0.73033 -0.147478,-0.037 -0.192717,-0.0118 -0.350996,0.19594 -0.09994,0.13114 -0.48923,0.54018 -0.865101,0.90897 -0.375871,0.36879 -0.713487,0.73045 -0.750257,0.80368 -0.157778,0.31423 -0.02626,1.16258 0.229604,1.48104 0.423073,0.52658 0.464529,0.84202 0.217046,1.65154 -0.13048,0.4268 -0.151984,0.59472 -0.127193,0.99317 0.03095,0.49741 0.0811,0.62719 0.592013,1.53207 0.187612,0.33228 0.208728,0.42018 0.230777,0.96059 0.02739,0.67141 -0.04619,1.05161 -0.266749,1.37823 -0.219295,0.32475 -0.748668,0.73945 -1.410819,1.10521 -0.689137,0.38067 -0.968108,0.61132 -1.088828,0.90025 -0.126112,0.30182 -0.110048,0.84802 0.03734,1.26952 0.06924,0.19802 0.153089,0.52369 0.186322,0.7237 0.0964,0.58021 0.185624,0.62706 0.642438,0.33736 0.234533,-0.14874 0.354005,-0.18287 0.640027,-0.18287 0.40971,0 0.449872,-0.0436 0.509633,-0.55332 0.02132,-0.18181 0.06643,-0.40373 0.100241,-0.49316 0.06731,-0.17801 0.379692,-0.36188 0.533163,-0.31384 0.250584,0.0785 0.370292,0.17302 0.427797,0.33798 0.07359,0.21111 -0.0064,0.44252 -0.301233,0.87099 -0.332139,0.48274 -0.2995,0.84088 0.09216,1.0112 0.177729,0.0773 0.57023,0.0205 0.705744,-0.10217 z m -0.522871,-7.59436 c -0.234074,-0.12803 -0.274309,-0.24347 -0.274309,-0.78701 0,-0.31467 -0.03708,-0.63439 -0.09144,-0.78846 -0.136346,-0.38645 -0.117794,-0.64972 0.05819,-0.8257 0.293788,-0.29379 0.82217,-0.0896 0.828209,0.32003 0.0044,0.29813 0.06345,0.89082 0.122867,1.23312 0.085,0.48968 0.07115,0.66092 -0.06442,0.79649 -0.133362,0.13336 -0.388046,0.15602 -0.579097,0.0515 z m -4.79676,6.3033 c 0.184723,-0.0922 0.427484,-0.25317 0.53947,-0.35771 0.202623,-0.18915 0.203618,-0.19284 0.20495,-0.76197 10e-4,-0.43569 0.0298,-0.6346 0.120822,-0.83518 0.177428,-0.39097 0.698348,-0.85169 1.44173,-1.27512 0.363583,-0.20709 0.777853,-0.49079 0.920599,-0.63045 0.325843,-0.31878 0.47475,-0.7692 0.416931,-1.26114 -0.04524,-0.38492 -0.107248,-0.52366 -0.347826,-0.77827 -0.242451,-0.25658 -0.481037,-1.0723 -0.481037,-1.64465 0,-0.24018 0.05486,-0.6512 0.121915,-0.91338 0.215673,-0.84327 0.131288,-1.31058 -0.236661,-1.31058 -0.186685,0 -0.391292,0.18334 -0.487226,0.43658 -0.03381,0.0893 -0.062,0.54449 -0.06265,1.01162 -0.0019,1.3984 -0.109661,1.6614 -1.05807,2.58319 l -0.604256,0.5873 0.0261,0.4185 c 0.01435,0.23018 0.08597,0.7041 0.159157,1.05315 0.191951,0.91551 0.08816,1.15678 -0.540442,1.25626 -0.495799,0.0785 -0.58758,0.20784 -0.402033,0.56665 0.08571,0.16575 0.123688,0.40517 0.106438,0.67105 -0.0052,0.0795 -0.153719,0.29347 -0.338613,0.48766 -0.317924,0.33391 -0.363889,0.41654 -0.348335,0.62621 0.0079,0.1062 0.213617,0.22724 0.397356,0.23378 0.0637,0.002 0.266961,-0.0713 0.451681,-0.1635 z m 1.313921,-3.62206 c -0.179253,-0.0868 -0.289425,-0.31496 -0.242453,-0.50211 0.02155,-0.0858 0.16165,-0.29398 0.311346,-0.46253 0.320778,-0.36118 0.407519,-0.51964 0.543694,-0.99327 0.07899,-0.27471 0.144798,-0.38004 0.297179,-0.47562 0.305387,-0.19155 0.835782,-0.0834 0.835782,0.17049 0,0.32517 -0.86185,1.99238 -1.145136,2.21521 -0.164196,0.12916 -0.394547,0.14751 -0.600412,0.0478 z m 11.17347,3.65117 c 0.03991,-0.0411 0.09097,-0.17577 0.113472,-0.29913 0.03915,-0.21471 0.03057,-0.22958 -0.200767,-0.3476 -0.380007,-0.19386 -0.61565,-0.42339 -0.690235,-0.67233 -0.07813,-0.26078 -0.02235,-0.41134 0.304434,-0.82147 0.242613,-0.3045 0.245355,-0.49263 0.009,-0.61487 -0.09892,-0.0511 -0.229211,-0.0936 -0.289548,-0.0943 -0.255983,-0.003 -0.606932,-0.2277 -0.716428,-0.45845 -0.112901,-0.23792 -0.112334,-0.42547 0.0053,-1.74999 l 0.03655,-0.41153 -0.238487,-0.22852 c -0.131168,-0.12569 -0.397208,-0.3467 -0.591199,-0.49114 -0.479139,-0.35675 -0.628859,-0.68867 -0.709672,-1.57331 -0.169621,-1.85678 -0.223866,-1.98565 -1.248347,-2.96587 -1.017858,-0.97389 -1.076886,-1.09421 -1.124787,-2.29274 -0.04579,-1.1456 -0.105231,-1.27806 -0.949289,-2.11532 -0.846186,-0.83935 -0.975849,-0.89732 -2.108623,-0.94259 -1.196561,-0.0478 -1.318864,-0.1076 -2.288786,-1.11873 -0.398879,-0.41582 -0.830639,-0.80658 -0.965422,-0.87374 -0.378128,-0.1884 -0.832239,-0.27484 -2.000119,-0.38071 -0.984141,-0.0892 -1.295273,-0.25331 -1.753988,-0.9251 -0.129507,-0.18966 -0.31161,-0.40539 -0.404673,-0.47939 -0.156968,-0.1248 -0.204483,-0.13087 -0.656869,-0.0838 -0.268213,0.0279 -0.734538,0.0516 -1.036278,0.0527 -0.687803,0.002 -0.887454,-0.10917 -1.001963,-0.56006 -0.18842,-0.74191 -0.34392,-0.84193 -0.772664,-0.49697 -0.130335,0.10487 -0.328476,0.22966 -0.440313,0.27731 -0.373698,0.15924 -0.760936,-0.0772 -1.040823,-0.63561 -0.143006,-0.28529 -0.258376,-0.32055 -0.552037,-0.16869 -0.333226,0.17232 -0.303003,0.52868 0.100902,1.18973 0.338713,0.55436 0.45337,0.60866 0.977356,0.46291 0.508654,-0.14149 0.824982,-0.18272 1.022205,-0.13322 0.370117,0.0929 0.687062,0.5568 1.032155,1.51074 0.05691,0.15731 0.164504,0.37675 0.239106,0.48766 0.169906,0.25259 1.163432,1.01166 1.41023,1.07744 0.362313,0.0966 0.763139,-0.13658 0.763139,-0.44388 0,-0.26237 -0.657045,-0.72174 -1.352497,-0.94559 -0.286052,-0.0921 -0.530581,-0.28393 -0.602297,-0.47256 -0.08447,-0.22216 0.06702,-0.52893 0.311122,-0.63004 0.182588,-0.0756 0.221823,-0.0704 0.449441,0.0597 0.137164,0.0784 0.505852,0.2808 0.819307,0.44971 0.433269,0.23346 0.618452,0.37374 0.772331,0.58505 0.412253,0.56611 0.365652,0.54662 1.30057,0.54387 0.913349,-0.003 1.534428,0.0971 1.967953,0.31625 0.146208,0.0739 0.567574,0.42886 0.936367,0.78881 0.618876,0.60402 1.412137,1.20872 1.708203,1.30215 0.06782,0.0214 0.342128,-0.003 0.609576,-0.0546 0.515253,-0.0991 0.851351,-0.0762 1.153221,0.0784 0.236484,0.12111 1.454764,1.34199 1.579141,1.58251 0.16013,0.30966 0.180996,0.63351 0.07447,1.15579 -0.05474,0.26838 -0.08015,0.5405 -0.05646,0.60472 0.117581,0.31877 0.716548,1.10131 1.302485,1.70165 0.359942,0.3688 0.714835,0.79003 0.788652,0.93607 0.215561,0.42648 0.305803,0.99886 0.306955,1.94695 0.0012,0.98097 -0.01748,0.93631 0.555589,1.32875 0.214019,0.14656 0.334747,0.30272 0.541958,0.70101 0.14663,0.28185 0.343936,0.6344 0.438461,0.78345 0.09452,0.14905 0.171863,0.32146 0.171863,0.38313 0,0.17808 -0.175157,0.39801 -0.371485,0.46645 -0.349328,0.12178 -0.595397,-0.0829 -0.826313,-0.68741 -0.29011,-0.75943 -0.650106,-1.2561 -0.910444,-1.2561 -0.307297,0 -0.540437,0.40083 -0.443876,0.76314 0.06578,0.24679 0.824842,1.24032 1.077435,1.41023 0.110908,0.0746 0.330355,0.18202 0.48766,0.2387 1.458766,0.52569 1.727158,0.88942 1.413725,1.91592 -0.06654,0.21792 -0.121193,0.45424 -0.121448,0.52516 -6.92e-4,0.21842 0.213991,0.41783 0.741158,0.68812 0.518642,0.26592 0.766369,0.29508 0.944685,0.11118 z m 1.041023,-0.79108 c -0.03357,-0.34356 0.05807,-0.61171 0.23184,-0.67839 0.05427,-0.0208 0.19369,-0.0379 0.309814,-0.0379 0.211049,0 0.510382,-0.21583 0.510382,-0.368 0,-0.0378 0.08449,-0.26125 0.187748,-0.49652 0.158562,-0.36127 0.177318,-0.45288 0.120658,-0.58931 -0.08682,-0.20906 -0.363209,-0.38943 -0.857024,-0.55928 -0.750943,-0.25829 -1.225967,-0.56776 -1.402417,-0.91363 -0.165137,-0.3237 -0.153209,-0.51114 0.0614,-0.96478 0.100554,-0.21256 0.182824,-0.44022 0.182824,-0.50593 0,-0.29733 -0.361082,-0.70307 -1.012856,-1.13811 -0.677964,-0.45253 -0.884777,-0.83464 -0.761884,-1.40766 0.09234,-0.43055 0.104563,-0.39091 -0.23686,-0.76792 -0.329528,-0.36387 -0.351305,-0.43424 -0.215607,-0.69665 0.176259,-0.34085 0.487871,-0.33692 0.864952,0.0109 l 0.280879,0.25907 0.596046,0.0317 c 0.569893,0.0303 0.611679,0.0423 0.952155,0.27194 0.342227,0.23084 1.518188,1.37498 1.832211,1.78264 0.304083,0.39475 0.102865,0.95141 -0.343914,0.95141 -0.234858,0 -0.403497,-0.15209 -0.597033,-0.53846 -0.182626,-0.36459 -1.209091,-1.37847 -1.575447,-1.55614 -0.44355,-0.2151 -0.757962,-0.11518 -0.757962,0.24089 0,0.2648 0.237931,0.55257 0.68056,0.82311 0.53606,0.32765 0.612305,0.4031 0.84104,0.83225 0.106643,0.20008 0.25366,0.4012 0.326708,0.44694 0.07304,0.0457 0.314852,0.0965 0.537347,0.1129 0.678351,0.0499 1.095815,0.34548 1.942248,1.37527 0.325524,0.39604 0.617818,0.61964 0.810543,0.62004 0.06019,1.2e-4 0.176039,-0.0664 0.257434,-0.14776 0.231593,-0.23159 0.120427,-0.43511 -0.514698,-0.94227 -1.026481,-0.81967 -1.180571,-1.14968 -0.766566,-1.6417 0.241243,-0.28669 0.203555,-0.48705 -0.170464,-0.90622 -0.212376,-0.23802 -0.370095,-0.49136 -0.46085,-0.74027 -0.133295,-0.36557 -0.151805,-0.3855 -0.545769,-0.58774 -0.224287,-0.11513 -0.531235,-0.32265 -0.682104,-0.46116 -0.485297,-0.44552 -0.907574,-0.59321 -2.438302,-0.8528 -0.89153,-0.15119 -1.268998,-0.30665 -1.645855,-0.67785 -0.328521,-0.32359 -1.474807,-1.55953 -1.538246,-1.65855 -0.168991,-0.26378 0.105397,-0.66932 0.452865,-0.66932 0.155628,0 0.240017,0.053 0.41196,0.25877 0.118931,0.14232 0.484404,0.55529 0.81216,0.9177 0.71191,0.78718 0.812411,0.83921 2.055734,1.06425 1.440966,0.26083 1.76164,0.37905 2.407824,0.88772 0.655091,0.51569 0.767798,0.53239 1.359504,0.20149 0.356633,-0.19944 0.450695,-0.22528 0.802354,-0.22037 0.589578,0.008 1.340843,0.32188 1.555447,0.6494 0.05333,0.0814 0.124582,0.31952 0.158348,0.52919 0.03377,0.20967 0.101916,0.45957 0.151443,0.55535 0.08195,0.15848 0.476932,0.41917 0.635091,0.41917 0.03562,0 0.183375,-0.10935 0.328355,-0.24299 0.21151,-0.19496 0.32871,-0.25232 0.59298,-0.29018 0.28232,-0.0404 0.33226,-0.0676 0.34965,-0.18991 0.0112,-0.0785 0.004,-0.20856 -0.0164,-0.28902 -0.0423,-0.16838 -0.71568,-0.93581 -0.90983,-1.03684 -0.0717,-0.0373 -0.318167,-0.0845 -0.547754,-0.10494 -0.43938,-0.0391 -0.682896,-0.13709 -1.533209,-0.61715 -0.268214,-0.15142 -0.54898,-0.27566 -0.623924,-0.27608 -0.07495,-4.6e-4 -0.306339,0.0884 -0.514207,0.19734 -0.576666,0.30228 -0.916794,0.28288 -1.556428,-0.0888 -0.624756,-0.36301 -0.978631,-0.48059 -2.15157,-0.71488 -1.33655,-0.26697 -1.61671,-0.42605 -2.171786,-1.23317 -0.261323,-0.37998 -0.517944,-0.55575 -1.085701,-0.74361 -0.266155,-0.0881 -0.586413,-0.23115 -0.711683,-0.31797 -0.252739,-0.17515 -0.419775,-0.51452 -0.419775,-0.85286 0,-0.30081 -0.133067,-0.52568 -0.425636,-0.71929 -0.393727,-0.26056 -0.721203,-0.57976 -1.010026,-0.98451 -0.289927,-0.4063 -0.461122,-0.51618 -0.807396,-0.51823 -0.571069,-0.003 -0.893597,-0.32628 -1.16754,-1.16886 -0.166405,-0.51181 -0.326949,-0.75159 -0.674255,-1.007 -0.907421,-0.66734 -1.006953,-0.84368 -1.309871,-2.32062 -0.244633,-1.19275 -0.30633,-1.37459 -0.696339,-2.05224 -0.248146,-0.43116 -0.278847,-0.52555 -0.27759,-0.85341 0.0012,-0.30506 0.03657,-0.42989 0.205315,-0.7239 0.261346,-0.45537 0.243542,-0.5598 -0.237163,-1.39117 -0.31802,-0.55001 -0.38478,-0.71768 -0.436893,-1.09724 -0.03383,-0.24641 -0.07426,-0.51338 -0.08983,-0.59326 -0.02934,-0.15047 -0.71301,-0.83056 -0.975974,-0.97086 -0.08228,-0.0439 -0.237081,-0.0713 -0.344002,-0.061 -0.185837,0.018 -0.19651,0.0336 -0.242224,0.35345 -0.0393,0.27499 -0.09096,0.37854 -0.290058,0.5814 -0.277268,0.28252 -0.284319,0.31749 -0.126123,0.62562 0.148027,0.28832 0.372263,0.41733 0.86263,0.4963 0.215273,0.0347 0.460297,0.11366 0.544498,0.17552 0.348951,0.25639 0.720636,1.26299 0.643794,1.74353 -0.02186,0.13669 -0.134349,0.4177 -0.249982,0.62447 -0.310526,0.55527 -0.276854,0.76148 0.217642,1.33282 0.469892,0.54292 0.660809,1.07342 0.91446,2.54101 0.206769,1.19635 0.240403,1.24317 1.974765,2.7493 0.183375,0.15924 0.23875,0.25191 0.23875,0.39953 0,0.24159 -0.227477,0.49599 -0.443498,0.49599 -0.163668,0 -0.6131,-0.26711 -0.6131,-0.36439 0,-0.0304 -0.303622,-0.32426 -0.674716,-0.65309 -1.009291,-0.89437 -1.051281,-0.97642 -1.36662,-2.67044 -0.216486,-1.16298 -0.332628,-1.47165 -0.729967,-1.94001 -0.177087,-0.20874 -0.407342,-0.54864 -0.511675,-0.75532 -0.181038,-0.35863 -0.206968,-0.38209 -0.567977,-0.51372 -0.246259,-0.0898 -0.501745,-0.24809 -0.732049,-0.45359 -0.496968,-0.44343 -0.508115,-0.44453 -1.029991,-0.10172 -0.41255,0.271 -0.701829,0.14314 -1.286329,-0.56855 -0.639951,-0.77921 -0.74853,-0.87897 -0.956698,-0.87897 -0.239585,0 -0.406054,0.22673 -0.345019,0.46992 0.04247,0.16921 0.247913,0.38331 1.105474,1.15203 0.602572,0.54016 0.820301,0.91369 0.86184,1.47858 0.01636,0.22249 0.06717,0.4643 0.1129,0.53735 0.04573,0.073 0.246,0.2196 0.445036,0.32569 0.430559,0.22949 0.531532,0.33119 0.845973,0.85208 0.261754,0.43362 0.548405,0.67053 0.811283,0.67053 0.359575,0 0.455893,-0.31427 0.235713,-0.76911 -0.178955,-0.36967 -1.178846,-1.37826 -1.550961,-1.56446 -0.393758,-0.19703 -0.538082,-0.36066 -0.531212,-0.60227 0.01279,-0.44984 0.548104,-0.64243 0.944169,-0.33968 0.400176,0.30589 1.550273,1.48867 1.782715,1.83338 0.229563,0.34044 0.241522,0.38232 0.271857,0.95215 l 0.03173,0.59605 0.259069,0.28088 c 0.347805,0.37708 0.351724,0.68869 0.01088,0.86495 -0.262412,0.1357 -0.332776,0.11392 -0.696652,-0.21561 -0.377011,-0.34142 -0.337371,-0.32919 -0.767913,-0.23686 -0.587237,0.12594 -0.948929,-0.0788 -1.454591,-0.82358 -0.404509,-0.59575 -0.807047,-0.95116 -1.077296,-0.95116 -0.07335,0 -0.307263,0.0823 -0.519815,0.18283 -0.453642,0.21461 -0.641088,0.22653 -0.964785,0.0614 -0.34587,-0.17645 -0.655332,-0.65148 -0.913627,-1.40242 -0.171656,-0.49906 -0.350512,-0.77033 -0.567225,-0.86032 -0.14714,-0.0611 -0.224158,-0.0452 -0.583959,0.12066 -0.227955,0.10507 -0.442866,0.19104 -0.477579,0.19104 -0.03471,0 -0.135391,0.0568 -0.223729,0.12634 -0.130306,0.1025 -0.160615,0.17727 -0.160615,0.39623 0,0.43996 -0.165579,0.54896 -0.783586,0.51587 l -0.265446,-0.0142 0.04271,0.2651 c 0.02349,0.14581 0.08317,0.32882 0.132607,0.4067 0.08445,0.13302 0.119348,0.13996 0.576311,0.11469 0.432944,-0.0239 0.521262,-0.0505 0.803373,-0.24134 0.448929,-0.30372 0.555089,-0.35022 0.799647,-0.35022 0.350502,0 0.572023,0.24764 0.654363,0.7315 0.140007,0.82272 0.307238,0.92733 1.233525,0.77158 1.166427,-0.19612 1.370999,-0.12264 1.877518,0.67441 0.435348,0.68505 0.470402,0.70007 2.153375,0.92302 1.402067,0.18573 1.488507,0.22886 2.467855,1.23122 0.45261,0.46324 0.90522,0.87615 1.0058,0.91757 0.10058,0.0414 0.580621,0.0918 1.066757,0.11196 0.833359,0.0346 0.908154,0.048 1.308425,0.23609 0.348641,0.1638 0.557903,0.33282 1.170517,0.94543 0.612614,0.61262 0.781635,0.82188 0.94543,1.17052 0.188049,0.40027 0.201546,0.47507 0.236095,1.30843 0.02015,0.48613 0.07053,0.96617 0.111956,1.06675 0.04142,0.10058 0.454331,0.55319 0.917576,1.0058 1.002363,0.97935 1.045487,1.06579 1.231219,2.46786 0.222945,1.68297 0.237968,1.71802 0.923024,2.15337 0.797046,0.50652 0.870529,0.7111 0.674405,1.87752 -0.155616,0.92551 -0.04066,1.10832 0.778688,1.2384 0.313346,0.0497 0.421765,0.0979 0.556754,0.24743 0.252708,0.27988 0.229762,0.56447 -0.08332,1.03331 -0.279835,0.41906 -0.35503,0.66536 -0.35717,1.16987 -0.0016,0.36312 0.03961,0.40824 0.455729,0.49981 0.33973,0.0747 0.35295,0.0632 0.319508,-0.27906 z m 5.80205,-5.5678 c 0.156566,-0.13174 0.187546,-0.20168 0.187546,-0.4233 0,-0.33998 -0.163963,-0.53011 -0.60312,-0.69935 -0.44142,-0.1701 -0.921305,-0.49894 -1.085839,-0.74405 -0.074,-0.11024 -0.164785,-0.35131 -0.201739,-0.53571 -0.08989,-0.4485 -0.173452,-0.6021 -0.387907,-0.71299 -0.221086,-0.11433 -0.695739,-0.0807 -0.918198,0.0651 -0.269154,0.17636 -0.210768,0.38313 0.288535,1.02184 0.346883,0.44374 0.524112,0.61311 0.807688,0.77188 0.433333,0.24262 0.701337,0.48703 0.975175,0.8893 0.211866,0.31122 0.474808,0.52405 0.648311,0.52473 0.0561,2.3e-4 0.186398,-0.0706 0.289548,-0.15741 z m -27.61102,-2.00932 c 0.436023,-0.41589 0.676598,-0.49776 1.048334,-0.35675 0.344241,0.13058 0.602607,0.1402 0.661114,0.0246 0.02546,-0.0503 0.08371,-0.25602 0.129459,-0.45718 0.07465,-0.32829 0.106194,-0.377 0.307982,-0.47564 0.218931,-0.10701 0.24204,-0.10636 0.883884,0.025 0.362492,0.0742 0.846018,0.14652 1.074502,0.16076 l 0.415426,0.0259 0.620853,-0.63376 c 0.451352,-0.46073 0.720706,-0.68264 0.986598,-0.81284 0.353381,-0.17304 0.402839,-0.18014 1.462982,-0.21005 0.711863,-0.0201 1.14431,-0.0577 1.231265,-0.10715 0.179768,-0.10219 0.323153,-0.31587 0.323153,-0.48158 0,-0.3326 -0.500999,-0.4103 -1.310588,-0.20324 -0.613976,0.15703 -1.247757,0.15731 -1.747099,6.9e-4 -0.212529,-0.0666 -0.429288,-0.12148 -0.481687,-0.12192 -0.0524,-4.6e-4 -0.175838,-0.0855 -0.274309,-0.1891 -0.237599,-0.24991 -0.43186,-0.34517 -0.8048,-0.39464 -0.799017,-0.10599 -1.299189,0.23961 -1.9186,1.3257 -0.426391,0.74764 -0.892654,1.27725 -1.278773,1.4525 -0.195712,0.0888 -0.398713,0.1188 -0.811317,0.1198 -0.653336,0.002 -0.724422,0.0393 -1.034196,0.54929 -0.301989,0.49713 -0.335804,0.73757 -0.132342,0.94104 0.08628,0.0863 0.187587,0.15687 0.225126,0.15687 0.03754,0 0.227905,-0.15228 0.423033,-0.3384 z m 3.166427,-1.69037 c -0.310848,-0.23867 -0.313801,-0.60093 -0.0073,-0.89139 0.243477,-0.23071 1.444378,-0.85803 1.889621,-0.98709 0.321214,-0.0931 0.433704,-0.0111 0.477671,0.34809 0.04578,0.37404 -0.134211,0.60476 -0.569388,0.72988 -0.449473,0.12924 -0.607018,0.21068 -0.870992,0.45026 -0.449493,0.40796 -0.713513,0.50851 -0.919646,0.35025 z m -1.983143,-0.71787 c 0.195838,-0.13419 0.355377,-0.37121 0.977079,-1.45159 0.103631,-0.18009 0.347437,-0.4883 0.541791,-0.68491 0.458979,-0.4643 0.772388,-0.56527 1.650887,-0.53186 0.567047,0.0216 0.646484,0.0402 0.982663,0.23029 0.902341,0.51026 1.034532,0.56137 1.532069,0.59233 0.398458,0.0248 0.56637,0.003 0.993174,-0.12719 0.813774,-0.24879 1.124033,-0.20678 1.661368,0.22494 0.179719,0.14439 0.32008,0.1929 0.705326,0.24376 0.264526,0.0349 0.561309,0.0437 0.659516,0.0194 0.115406,-0.0285 0.437274,-0.30667 0.91005,-0.78657 0.40232,-0.40838 0.82508,-0.81211 0.939468,-0.89716 0.178334,-0.13261 0.201917,-0.17879 0.165463,-0.32404 -0.08303,-0.33083 -0.720835,-0.43789 -1.10585,-0.18562 -0.09213,0.0604 -0.192412,0.23811 -0.275918,0.48905 -0.305437,0.91784 -1.161558,1.1888 -2.016522,0.63822 -0.339659,-0.21873 -0.416034,-0.29156 -0.964946,-0.92013 -0.248862,-0.28497 -0.509056,-0.56237 -0.578207,-0.61643 -0.671982,-0.52537 -1.532255,-0.49489 -2.167809,0.0768 -0.326923,0.29406 -1.060728,0.61178 -1.491774,0.6459 -0.339047,0.0268 -0.404757,0.01 -0.850582,-0.22146 -0.641213,-0.33251 -0.675044,-0.32902 -0.675044,0.0697 0,0.39022 -0.122773,0.57522 -0.5427,0.81776 -0.308143,0.17797 -0.367968,0.2571 -1.063962,1.40731 -0.364885,0.60301 -0.60406,0.80738 -0.94486,0.80738 -0.647468,0 -0.714762,-0.85048 -0.08696,-1.09902 0.312042,-0.12354 0.413732,-0.23907 0.633674,-0.71997 0.336356,-0.73544 1.260763,-1.59463 1.715668,-1.59463 0.377103,0 0.0465,-0.36987 -0.658399,-0.7366 -0.513605,-0.26721 -0.740248,-0.48108 -1.009428,-0.95255 -0.241436,-0.42288 -0.322544,-0.50267 -0.687043,-0.67588 -0.234158,-0.11128 -0.349959,-0.20915 -0.405921,-0.34309 -0.246029,-0.58883 0.454846,-1.06954 1.006408,-0.69027 0.121249,0.0834 0.328096,0.36194 0.527521,0.71043 0.452088,0.78999 0.677455,1.04587 1.129907,1.28288 0.212352,0.11124 0.609683,0.36282 0.882957,0.55905 0.273274,0.19624 0.569943,0.38458 0.659263,0.41854 0.40026,0.15218 0.73662,0.0424 1.531799,-0.49998 0.65225,-0.44488 1.001139,-0.55817 1.610319,-0.5229 0.756653,0.0438 1.032907,0.20959 2.010866,1.20683 0.45261,0.46153 0.882843,0.86972 0.956074,0.90709 0.340231,0.17361 0.750738,-0.052 0.750738,-0.41259 0,-0.22693 -0.08241,-0.30942 -0.525938,-0.52642 -0.245942,-0.12032 -0.588209,-0.39947 -1.121077,-0.91433 -0.93207,-0.90058 -1.031241,-0.9463 -2.145657,-0.98916 -1.064036,-0.0409 -1.154325,-0.0175 -1.572761,0.40745 -0.771534,0.7836 -1.253735,0.73279 -2.590031,-0.27293 -0.583007,-0.43879 -0.826135,-0.76429 -1.068237,-1.43015 -0.103615,-0.28498 -0.227643,-0.57858 -0.275617,-0.65245 -0.143594,-0.2211 -0.413239,-0.22558 -1.33862,-0.0223 -0.468289,0.10289 -0.969152,0.18707 -1.113028,0.18707 -0.143876,0 -0.356719,0.0397 -0.472986,0.0883 -0.304845,0.12737 -0.28247,0.31102 0.08971,0.73633 0.165607,0.18925 0.319169,0.43086 0.34125,0.53692 0.06285,0.30186 0.197107,0.46551 0.482183,0.58771 0.305163,0.1308 0.460361,0.32214 0.460361,0.56755 0,0.2416 -0.08759,0.38012 -0.294553,0.46585 -0.199173,0.0825 -0.415088,0.009 -0.796446,-0.27055 -0.253504,-0.18592 -0.324916,-0.14221 -0.467133,0.28597 -0.09969,0.30014 -0.09907,0.30934 0.02927,0.43725 0.118917,0.11852 0.185936,0.12898 0.721259,0.11252 0.471071,-0.0145 0.664379,-0.0498 0.957953,-0.17528 0.550391,-0.23514 0.783964,-0.24935 0.974053,-0.0593 0.231302,0.2313 0.221422,0.64374 -0.02029,0.84712 -0.161647,0.13602 -0.244928,0.15127 -1.021039,0.18691 -0.47706,0.0219 -0.951214,0.0135 -1.088867,-0.0193 -0.385189,-0.0918 -0.67323,-0.0726 -0.831413,0.0555 -0.208081,0.16849 -0.205924,0.66104 0.0039,0.88436 0.209424,0.22292 0.453195,0.20524 0.849428,-0.0616 0.612647,-0.41258 0.804447,-0.44566 1.090589,-0.18809 0.259902,0.23394 0.129938,0.7595 -0.211289,0.85442 -0.05981,0.0166 -0.263398,0.0478 -0.452427,0.0692 -0.486273,0.0552 -0.548702,0.11744 -0.562681,0.56108 -0.0092,0.29183 -0.04687,0.42127 -0.177467,0.60972 -0.286695,0.4137 -0.223046,0.51695 0.382825,0.621 0.217923,0.0374 0.533379,0.12348 0.701012,0.19122 0.432294,0.1747 1.152856,0.14255 1.455677,-0.065 z m 6.072584,-2.59097 c -0.117344,-0.0444 -0.451129,-0.0823 -0.741745,-0.0842 -0.290616,-0.002 -0.572798,-0.0205 -0.62707,-0.0413 -0.163996,-0.0629 -0.292416,-0.37919 -0.248667,-0.61239 0.05714,-0.30457 0.226471,-0.36236 0.811046,-0.27683 0.259143,0.0379 0.702721,0.0877 0.985728,0.11067 0.59237,0.0481 0.796029,0.17896 0.796029,0.51163 0,0.41709 -0.441054,0.59454 -0.975321,0.3924 z m 20.959808,1.76137 c 0.3437,-0.2072 0.34672,-0.20777 0.89515,-0.16768 0.4642,0.0339 0.56302,0.0249 0.63163,-0.0578 0.14336,-0.17274 0.0281,-0.38531 -0.34692,-0.64 -0.41622,-0.28265 -0.47295,-0.34548 -0.71308,-0.7898 -0.15206,-0.28135 -0.24541,-0.37241 -0.55399,-0.54041 -0.511905,-0.27869 -0.965648,-0.36548 -1.262458,-0.24147 -0.124098,0.0519 -0.225631,0.1333 -0.225631,0.18099 0,0.0477 0.104878,0.20489 0.233063,0.34933 0.220037,0.24795 0.256533,0.26506 0.652806,0.30608 0.3494,0.0362 0.44314,0.0707 0.55938,0.20579 0.31539,0.36666 0.0808,0.88704 -0.39993,0.88704 -0.283942,0 -1.420393,-0.54574 -1.5643,-0.75119 -0.13458,-0.19214 -0.110343,-0.45403 0.07059,-0.76277 l 0.161182,-0.27503 -0.137458,-0.11131 c -0.0756,-0.0612 -0.187928,-0.1113 -0.249617,-0.1113 -0.369752,0 -0.72872,-0.14221 -1.009359,-0.39986 -0.325636,-0.29897 -0.45959,-0.32636 -0.876572,-0.17924 -0.308229,0.10875 -0.726957,0.11697 -1.170434,0.023 -0.435678,-0.0923 -0.706464,-0.23784 -1.061358,-0.57028 -0.163872,-0.1535 -0.364879,-0.29631 -0.446686,-0.31735 -0.19404,-0.0499 -0.549743,0.14149 -0.672331,0.36176 -0.08311,0.14933 -0.08331,0.1853 -0.0018,0.32935 0.152933,0.27047 0.36698,0.38207 1.283896,0.6694 0.806824,0.25283 0.954284,0.27972 1.77119,0.32292 0.774661,0.041 0.92589,0.0663 1.157426,0.19404 0.328341,0.18112 0.512622,0.49653 0.597297,1.02232 0.03445,0.21394 0.111583,0.44327 0.171397,0.5096 0.136456,0.15134 1.22303,0.70084 1.527365,0.77241 0.325832,0.0766 0.586402,0.0185 0.979612,-0.21853 z m -3.640933,-0.32875 c 0.198307,-0.10613 0.248643,-0.33024 0.136901,-0.60951 -0.128146,-0.32027 -0.335348,-0.42279 -0.85705,-0.42408 -0.227969,-4.6e-4 -0.647654,-0.0524 -0.932629,-0.11517 -0.614924,-0.13546 -2.032798,-0.52383 -2.270951,-0.62204 -0.212749,-0.0877 -0.505694,-0.41925 -0.62699,-0.70955 -0.139522,-0.33392 -0.243239,-0.42045 -0.720865,-0.60139 -0.23918,-0.0906 -0.573987,-0.24252 -0.744013,-0.33757 -0.420898,-0.2353 -0.803688,-0.28491 -0.996112,-0.1291 -0.115852,0.0938 -0.137015,0.15225 -0.103497,0.2858 0.06801,0.27099 0.297921,0.42735 0.888184,0.60404 0.479066,0.14341 0.593706,0.20528 0.842339,0.45462 0.15829,0.15874 0.403433,0.44506 0.544759,0.63625 0.289892,0.39218 0.549768,0.54889 1.084109,0.65375 1.173325,0.23026 2.161412,0.51026 2.590697,0.73415 0.479321,0.24999 0.909836,0.31643 1.165118,0.1798 z m 5.003413,-2.34474 c 0.0499,-0.10949 0.0453,-0.24314 -0.0183,-0.52962 -0.11254,-0.50738 -0.0968,-0.60019 0.20329,-1.19404 0.27491,-0.54412 0.27195,-0.69152 -0.0147,-0.73382 -0.10983,-0.0162 -0.24893,0.093 -0.63383,0.49754 -0.52258,0.54927 -0.72537,0.68423 -1.12387,0.74796 -0.368428,0.0589 -0.60838,-0.008 -1.110344,-0.30998 -0.367294,-0.2209 -0.508798,-0.27286 -0.745342,-0.27369 -0.326303,-0.001 -0.734511,0.17559 -0.833702,0.36092 -0.256326,0.47895 0.256642,0.70095 1.826691,0.79056 0.519667,0.0297 1.021827,0.0841 1.115907,0.12104 0.0941,0.0369 0.31354,0.20027 0.48766,0.36301 0.17413,0.16274 0.37075,0.32509 0.43694,0.36078 0.1514,0.0816 0.31821,-6e-5 0.40961,-0.20066 z m -5.52563,-1.33699 c 0.179686,-0.0748 0.316847,-0.21761 0.637208,-0.66327 0.189243,-0.26326 0.622465,-0.55901 0.944842,-0.64503 0.134108,-0.0358 0.413187,-0.0652 0.62018,-0.0654 0.412392,-4.6e-4 0.394848,0.0124 0.818901,-0.59838 0.231669,-0.33371 0.802779,-0.75014 1.562409,-1.13925 0.47215,-0.24185 0.60734,-0.34072 0.65474,-0.4788 0.0511,-0.149 0.0392,-0.19062 -0.0829,-0.28955 -0.12322,-0.0998 -0.24778,-0.11555 -0.91314,-0.11563 -0.61138,-6e-5 -0.814505,-0.0221 -0.983805,-0.10667 -0.280282,-0.14002 -0.435236,-0.44339 -0.360168,-0.70513 0.07576,-0.26414 0.261952,-0.38799 0.694833,-0.46215 0.32285,-0.0553 0.39716,-0.0963 0.62586,-0.34558 0.41045,-0.44733 0.41886,-0.76807 0.0211,-0.8075 -0.14425,-0.0143 -0.31573,0.0527 -0.661814,0.25868 -0.55359,0.32945 -0.780403,0.38231 -1.236397,0.28812 -0.499695,-0.10321 -0.75401,-0.0895 -0.877771,0.0472 -0.155025,0.1713 -0.07941,0.32392 0.341935,0.69017 0.290082,0.25215 0.418899,0.42524 0.607582,0.81638 0.185563,0.38468 0.280406,0.51335 0.421433,0.57177 0.219456,0.0909 0.484302,0.39115 0.484302,0.54903 0,0.21006 -0.136827,0.41808 -0.337686,0.5134 -0.109383,0.0519 -0.223776,0.0944 -0.254209,0.0944 -0.03043,0 -0.218304,0.0984 -0.417491,0.21856 -0.199187,0.1202 -0.561084,0.28366 -0.804216,0.36324 -0.585978,0.19179 -0.898158,0.3821 -1.451953,0.88511 -0.706726,0.64192 -1.018443,0.62824 -1.489461,-0.0654 -0.519607,-0.76515 -1.007722,-0.79109 -2.184888,-0.11611 -0.729984,0.41856 -0.919686,0.4124 -1.524805,-0.0495 -0.277377,-0.21172 -0.286415,-0.21393 -0.678137,-0.16573 -0.940795,0.11575 -1.365292,-0.0178 -1.640126,-0.51603 -0.159789,-0.28966 -0.182392,-0.55808 -0.103133,-1.2247 l 0.04711,-0.39623 -0.251971,-0.33427 c -0.138583,-0.18385 -0.267989,-0.3981 -0.287567,-0.4761 -0.06852,-0.27302 0.02783,-0.60104 0.308912,-1.05165 0.646047,-1.03571 0.606003,-1.61963 -0.146092,-2.13037 -0.661035,-0.4489 -0.701066,-0.79917 -0.158456,-1.3865 0.489216,-0.52953 0.817845,-1.03347 0.94733,-1.45269 0.06403,-0.2073 0.234931,-0.60658 0.379782,-0.8873 0.144852,-0.28071 0.298095,-0.59534 0.340539,-0.69916 0.07779,-0.19028 0.288978,-0.32937 0.500117,-0.32937 0.159141,0 0.458393,0.26548 0.550842,0.48867 0.06073,0.1466 0.182663,0.23672 0.571763,0.42258 0.399297,0.19073 0.562861,0.31361 0.84902,0.63782 0.198065,0.2244 0.404574,0.40157 0.468069,0.40157 0.292571,0 0.369801,-0.31997 0.234888,-0.97316 -0.09419,-0.45599 -0.04133,-0.6828 0.28812,-1.2364 0.205958,-0.34608 0.272986,-0.51756 0.258683,-0.66181 -0.0367,-0.3701 -0.360271,-0.3893 -0.75279,-0.0447 -0.268187,0.23547 -0.369838,0.42585 -0.425472,0.79685 -0.06055,0.40375 -0.252053,0.59524 -0.595275,0.59524 -0.197761,0 -0.299769,-0.0354 -0.395074,-0.13715 -0.211623,-0.22591 -0.258517,-0.4445 -0.258517,-1.20501 0,-0.77324 -0.06519,-1.03518 -0.257623,-1.03518 -0.233326,0 -0.359382,0.13885 -0.652557,0.71878 -0.374517,0.74083 -0.78301,1.30133 -1.11755,1.5334 -0.606251,0.42055 -0.593446,0.40286 -0.593446,0.81975 0,0.62894 -0.137626,0.97348 -0.547028,1.36945 -0.195491,0.18909 -0.456556,0.42683 -0.580146,0.52832 -0.170583,0.14008 -0.245829,0.26488 -0.312402,0.51814 -0.154036,0.58597 -0.01544,0.99877 0.531555,1.58324 0.638994,0.68276 0.638979,1.08566 -6.1e-5,1.79132 -0.410745,0.45355 -0.411632,0.59904 -0.0085,1.39376 0.381947,0.75296 0.415126,0.92967 0.277974,1.48044 -0.101801,0.40881 -0.102141,0.44744 -0.0057,0.6506 0.127668,0.26904 1.050548,1.178 1.289976,1.27051 0.140115,0.0541 0.267388,0.0463 0.606824,-0.0374 0.542965,-0.13392 0.710809,-0.10224 1.482312,0.27979 0.814635,0.40339 0.930468,0.40077 1.415499,-0.032 0.671612,-0.59927 1.036374,-0.60074 1.71846,-0.007 0.473549,0.41225 0.642205,0.51992 0.928048,0.59245 0.22127,0.0561 0.6636,0.0101 0.917212,-0.0956 z m -0.161412,-2.08185 c 0.379979,-0.31284 0.842327,-0.5615 1.347238,-0.72456 0.646988,-0.20895 0.853407,-0.35639 0.853407,-0.60954 0,-0.0447 -0.207138,-0.30692 -0.460307,-0.58267 -0.25317,-0.27575 -0.516958,-0.61409 -0.5862,-0.75188 -0.185043,-0.36822 -0.289968,-0.46387 -0.508853,-0.46387 -0.477416,0 -1.23938,0.83389 -1.063039,1.16339 0.07972,0.14896 0.321183,0.13905 0.792597,-0.0325 0.328316,-0.1195 0.543667,-0.0645 0.70372,0.17978 0.08812,0.13449 0.09276,0.19354 0.03133,0.39859 -0.09682,0.32317 -0.308889,0.42416 -0.982244,0.46779 -0.517598,0.0335 -0.554548,0.0271 -0.952903,-0.16499 l -0.414425,-0.19987 -0.73338,0.0363 c -0.803725,0.0398 -1.88057,0.26014 -2.288253,0.46813 -0.246509,0.12575 -0.486539,0.42896 -0.486975,0.61513 -2.3e-4,0.1349 0.186686,0.29068 0.399995,0.33321 0.131902,0.0263 0.266917,-0.0134 0.514141,-0.1511 0.846117,-0.47135 0.952382,-0.50626 1.640304,-0.53887 0.762128,-0.0361 0.915684,0.017 1.228693,0.42533 0.391862,0.51115 0.488749,0.52442 0.965158,0.13219 z m -9.040496,-0.54171 c 0.135225,-0.20638 0.07447,-0.57488 -0.165829,-1.00591 -0.102804,-0.18439 -0.239467,-0.48467 -0.303697,-0.66727 -0.169726,-0.48253 -0.26533,-0.59896 -0.635946,-0.77444 -0.419861,-0.19879 -0.670115,-0.48235 -0.785625,-0.89019 -0.490268,-1.731 -0.593873,-2.1847 -0.622871,-2.72758 -0.04501,-0.84256 -0.142263,-1.02039 -0.614835,-1.12419 -0.16106,-0.0354 -0.222677,-0.0158 -0.349612,0.11115 -0.23911,0.23911 -0.213078,0.61366 0.08509,1.22425 0.224006,0.45873 0.409669,1.10272 0.730196,2.53275 0.0715,0.31898 0.183425,0.66782 0.248731,0.77521 0.06531,0.10739 0.324108,0.34713 0.575114,0.53276 0.579882,0.42884 0.743525,0.64686 0.926544,1.23443 0.189993,0.60996 0.258849,0.73951 0.447656,0.84223 0.228391,0.12426 0.353391,0.10727 0.465087,-0.0632 z m 2.689381,-1.67428 c 0.10761,-0.0656 0.253758,-0.23319 0.324772,-0.37239 0.205099,-0.40202 0.426092,-1.47536 0.466618,-2.26629 0.03664,-0.71516 0.03637,-0.71709 -0.163642,-1.15103 -0.191538,-0.41554 -0.198823,-0.45819 -0.16567,-0.96992 0.04007,-0.61847 0.143271,-0.86246 0.411861,-0.97372 0.240641,-0.0997 0.456621,-0.0304 0.629543,0.20181 l 0.126689,0.17016 -0.135714,0.37846 c -0.168636,0.47026 -0.17367,0.68911 -0.01776,0.77255 0.332443,0.17792 1.161071,-0.58548 1.161873,-1.07041 4.61e-4,-0.21118 -0.07624,-0.29163 -0.517827,-0.54398 -0.167634,-0.0958 -0.502231,-0.36103 -0.743549,-0.58941 -0.241321,-0.22838 -0.479098,-0.41524 -0.528395,-0.41524 -0.265896,0 -0.365257,0.13391 -0.592856,0.79903 -0.199737,0.58369 -0.442176,1.03397 -0.752374,1.39737 -0.3773,0.44202 -0.372601,0.58943 0.02796,0.8772 0.505964,0.3635 0.560324,0.49611 0.529379,1.29146 -0.02801,0.71986 -0.05692,0.80994 -0.535888,1.66974 -0.201493,0.3617 -0.205892,0.59306 -0.01528,0.80369 0.128164,0.14162 0.24672,0.13942 0.49027,-0.009 z m -2.92148,-1.49932 c 0.196126,-0.13738 0.332457,-0.43273 0.288754,-0.62557 -0.02034,-0.0897 -0.171937,-0.30976 -0.336883,-0.4889 -0.516289,-0.56074 -0.732016,-1.44552 -0.525583,-2.15563 0.150069,-0.51622 0.132382,-0.6127 -0.169205,-0.92301 -0.257434,-0.26488 -0.402062,-0.62867 -0.402062,-1.01131 0,-0.0617 -0.05009,-0.17402 -0.111305,-0.24962 l -0.111305,-0.13746 -0.275035,0.16119 c -0.310704,0.18208 -0.570746,0.20508 -0.766731,0.0678 -0.207582,-0.14539 -0.747224,-1.27257 -0.747224,-1.56077 0,-0.48144 0.520046,-0.71636 0.887037,-0.40068 0.135141,0.11624 0.169626,0.20998 0.205795,0.55943 0.04141,0.40007 0.05613,0.43073 0.313476,0.65264 0.148514,0.12807 0.305714,0.23293 0.349333,0.23302 0.04362,9e-5 0.121731,-0.10137 0.173582,-0.22547 0.124016,-0.29681 0.03723,-0.75055 -0.241465,-1.26246 -0.168003,-0.30858 -0.259063,-0.40193 -0.540413,-0.55399 -0.444315,-0.24013 -0.507149,-0.29686 -0.789796,-0.71308 -0.254691,-0.37505 -0.467266,-0.49027 -0.640005,-0.34691 -0.08267,0.0686 -0.09171,0.16743 -0.05778,0.63162 l 0.04022,0.55029 -0.225273,0.36574 c -0.333357,0.54123 -0.317221,0.80969 0.100679,1.67501 0.178072,0.36873 0.384221,0.7272 0.458109,0.79662 0.08467,0.0795 0.269338,0.14529 0.499444,0.17781 0.410985,0.0581 0.725358,0.19636 0.886251,0.38978 0.262404,0.31546 0.306388,0.48544 0.349268,1.34973 0.03784,0.76281 0.06994,0.944 0.302377,1.70681 0.29954,0.98305 0.366076,1.13079 0.587812,1.30521 0.193221,0.15199 0.315562,0.15989 0.497921,0.0322 z m -5.863009,-3.83751 c 0.13662,-0.20851 0.179333,-0.65588 0.08448,-0.88487 -0.09081,-0.21923 -0.270725,-0.32265 -0.730718,-0.42003 -0.184397,-0.039 -0.419202,-0.12848 -0.521789,-0.19876 -0.259539,-0.17781 -0.616986,-0.67873 -0.743529,-1.04198 -0.159831,-0.4588 -0.368319,-0.65375 -0.699156,-0.65375 -0.202476,0 -0.300479,0.0342 -0.393162,0.13715 -0.296793,0.32972 -0.212416,0.62142 0.276614,0.95628 0.449562,0.30784 0.686627,0.56313 0.935234,1.00715 0.158775,0.28358 0.328145,0.46081 0.771881,0.80769 0.636848,0.49785 0.845649,0.55743 1.020143,0.29112 z m 6.306736,-0.70217 c 0.353349,-0.18911 0.469552,-0.94764 0.209799,-1.36951 -0.456037,-0.74065 -0.520846,-0.99897 -0.387031,-1.54266 0.05961,-0.24221 0.157744,-0.37135 0.640055,-0.84234 0.593856,-0.57992 0.679668,-0.7521 0.439029,-0.88089 -0.110754,-0.0593 -0.205771,-0.0313 -0.624815,0.18408 -0.542098,0.2786 -0.742941,0.30786 -1.264963,0.18433 -0.307987,-0.0729 -0.360719,-0.0705 -0.5029,0.0226 -0.245217,0.16067 -0.207153,0.36186 0.138058,0.72973 0.46597,0.49655 0.505125,0.61204 0.561085,1.65497 0.08677,1.61715 0.301651,2.1219 0.791683,1.85964 z m -10.038123,25.73194 c -0.203283,-0.12396 -0.409052,-0.38128 -0.47505,-0.59407 -0.02236,-0.0721 -0.19443,-0.36012 -0.382375,-0.64005 -0.187945,-0.27994 -0.378981,-0.59725 -0.424523,-0.70513 -0.207869,-0.49242 -0.02604,-0.91132 0.495706,-1.14207 0.246188,-0.10887 0.335853,-0.18117 0.335853,-0.27081 0,-0.16499 -1.487204,-1.6522 -1.652197,-1.6522 -0.08964,0 -0.161936,0.0897 -0.270811,0.33586 -0.309686,0.70025 -0.880868,0.76412 -1.66776,0.18649 -0.157243,-0.11543 -0.476594,-0.31043 -0.70967,-0.43333 -0.488602,-0.25765 -0.616633,-0.36023 -0.734803,-0.58874 -0.127335,-0.24624 -0.103407,-0.56563 0.06767,-0.90323 0.181424,-0.35802 0.363397,-0.49119 0.727265,-0.5322 0.229879,-0.0259 0.291529,-0.008 0.425823,0.12673 0.168078,0.16808 0.195944,0.35707 0.09269,0.62864 -0.03539,0.0931 -0.04911,0.22989 -0.0305,0.30405 0.04309,0.17169 0.673505,0.57095 0.901515,0.57095 0.274002,0 0.583556,-0.33198 0.689104,-0.73901 0.144331,-0.55661 0.245754,-0.74506 0.693207,-1.28799 0.485472,-0.58906 0.719345,-0.73019 0.973932,-0.58774 0.182703,0.10222 0.301723,0.40508 0.262968,0.66913 -0.02044,0.13925 -0.09182,0.21823 -0.308969,0.34187 -0.325272,0.1852 -0.461969,0.32992 -0.590964,0.62565 -0.184058,0.42197 -0.02206,0.61197 0.729487,0.85564 0.356945,0.11573 0.711282,0.50973 0.884503,0.98351 0.206362,0.56442 0.266097,0.63148 0.55569,0.62389 0.323014,-0.008 0.608996,-0.21372 0.843072,-0.60507 0.208888,-0.34923 0.364272,-0.41879 0.717596,-0.32124 0.26188,0.0723 0.415979,0.29605 0.360146,0.52291 -0.04624,0.18786 -0.566598,0.70018 -1.035666,1.01966 -0.172824,0.11771 -0.508561,0.26399 -0.765134,0.33337 -0.357332,0.0966 -0.50045,0.17026 -0.655294,0.33709 -0.249723,0.26907 -0.251358,0.44261 -0.0082,0.86765 0.225686,0.39446 0.387391,0.48925 0.667815,0.39149 0.304013,-0.10597 0.474851,-0.0826 0.645886,0.0885 0.134295,0.13429 0.152642,0.19594 0.126732,0.42582 -0.04101,0.36387 -0.174178,0.54584 -0.532202,0.72726 -0.35943,0.18214 -0.693039,0.19501 -0.952566,0.0368 z m 0.62527,-5.03189 c -0.148778,-0.13789 -0.172737,-0.21858 -0.186961,-0.62968 -0.006,-0.17392 -0.129357,-0.25498 -0.389805,-0.25619 -0.392374,-0.002 -0.615856,-0.20721 -0.61887,-0.56879 -0.0025,-0.29449 0.07125,-0.43091 0.326539,-0.60441 0.111935,-0.0761 0.607599,-0.56901 1.101474,-1.09541 1.033677,-1.10176 1.050735,-1.11124 2.11793,-1.17765 0.647929,-0.0403 0.653499,-0.0395 0.813356,0.12037 0.159954,0.15996 0.160703,0.16504 0.119669,0.81336 -0.02271,0.35882 -0.0691,0.76212 -0.103079,0.89622 -0.06446,0.25439 -0.116444,0.31135 -1.451863,1.59105 -0.35203,0.33734 -0.716659,0.71399 -0.810287,0.83698 -0.154498,0.20296 -0.19734,0.22363 -0.46352,0.22363 -0.22683,0 -0.329837,-0.0339 -0.454583,-0.14948 z m 1.269917,-1.70973 c 0.381643,-0.38555 0.723823,-0.70101 0.7604,-0.70101 0.106251,0 0.429564,-0.55626 0.429564,-0.73907 0,-0.19892 -0.142445,-0.35817 -0.320375,-0.35817 -0.22601,0 -0.639739,0.2426 -0.810915,0.47549 -0.09117,0.12404 -0.436255,0.48884 -0.766864,0.81067 l -0.601107,0.58514 v 0.31398 0.31399 h 0.3077 0.307701 z m 12.584342,-13.19262 c -0.098,-0.098 -0.178184,-0.22281 -0.178184,-0.27734 0,-0.17077 0.165591,-0.42146 0.399205,-0.60435 l 0.224788,-0.17598 -0.04202,-0.53717 c -0.05749,-0.7349 0.01108,-0.86683 0.724261,-1.39356 0.460206,-0.33989 0.621113,-0.50651 0.949715,-0.98342 0.217597,-0.31582 0.558091,-0.73223 0.756656,-0.92536 l 0.361027,-0.35116 -0.138497,-0.27731 c -0.190685,-0.38181 -0.138368,-0.59212 0.271774,-1.09249 0.487855,-0.59517 0.519229,-0.83823 0.11663,-0.90356 -0.477058,-0.0774 -0.693517,-0.58398 -0.376716,-0.8816 0.574042,-0.53929 1.416046,-0.356 1.758048,0.38269 0.231628,0.50029 0.11626,0.94845 -0.342976,1.33232 -0.183094,0.15305 -0.272949,0.27598 -0.272949,0.37341 0,0.15269 0.04634,0.17824 0.455103,0.25091 0.198203,0.0352 0.342031,0.14326 0.798435,0.59967 0.456402,0.4564 0.564426,0.60023 0.599664,0.79843 0.07268,0.40876 0.09822,0.45511 0.250909,0.45511 0.09743,0 0.22036,-0.0899 0.373409,-0.27295 0.383874,-0.45924 0.832033,-0.57461 1.332329,-0.34298 0.738683,0.342 0.921973,1.18401 0.382683,1.75805 -0.280472,0.29855 -0.80193,0.10433 -0.874567,-0.32575 -0.04809,-0.28474 -0.07635,-0.32871 -0.211223,-0.32871 -0.177161,0 -0.33755,0.093 -0.747247,0.4335 -0.433969,0.36063 -0.666558,0.41654 -1.008052,0.24232 -0.258787,-0.13202 -0.437079,-0.16352 -0.437079,-0.0772 0,0.12913 -0.475223,0.58065 -0.929461,0.88311 -0.6094,0.40576 -0.857692,0.64156 -1.287436,1.22266 -0.438694,0.5932 -0.603693,0.67046 -1.313396,0.61494 l -0.537163,-0.042 -0.175984,0.22479 c -0.182893,0.23361 -0.433579,0.3992 -0.60435,0.3992 -0.05453,0 -0.179336,-0.0802 -0.277335,-0.17818 z m 1.955484,-1.31536 c 0.09734,-0.0503 0.264534,-0.22178 0.371556,-0.38098 0.264044,-0.39281 0.512827,-0.65424 0.892055,-0.93742 0.175405,-0.13098 0.430985,-0.38984 0.56795,-0.57525 0.136967,-0.1854 0.340928,-0.38092 0.453245,-0.43448 0.188195,-0.0898 0.227329,-0.0893 0.498808,0.006 0.162025,0.057 0.334569,0.10896 0.383435,0.11556 0.120446,0.0163 0.258803,-0.28318 0.213754,-0.46266 -0.02007,-0.0799 -0.308085,-0.41593 -0.640049,-0.74665 -0.536568,-0.53455 -0.627561,-0.6013 -0.819703,-0.6013 -0.118874,0 -0.25616,0.04 -0.305081,0.0889 -0.07796,0.078 -0.07347,0.13096 0.03631,0.42898 0.115128,0.31253 0.117921,0.3576 0.03452,0.5572 -0.05554,0.13293 -0.219761,0.31248 -0.423406,0.46291 -0.182967,0.13517 -0.430285,0.37794 -0.549595,0.53949 -0.267424,0.3621 -0.593215,0.67282 -0.972945,0.92793 -0.318462,0.21395 -0.472499,0.45192 -0.472499,0.72996 0,0.34747 0.346429,0.48081 0.731643,0.28161 z"
         id="path21556" />
      <path
         id="path909-62-3"
         style="fill:#ef8a33;fill-opacity:1;stroke-width:0.564999;paint-order:fill markers stroke"
         d="m 39.232238,110.21124 c -1.314095,2.3e-4 -2.609181,0.6304 -4.71496,1.88928 l -4.7718,2.75487 -4.772319,2.75539 c -4.364166,2.51965 -4.823888,3.17356 -4.772318,8.26565 v 5.51026 5.51026 c 0,5.0393 0.259714,5.64597 4.772318,8.26564 l 4.772319,2.75539 4.7718,2.75486 c 4.364167,2.51965 5.060405,2.56314 9.544122,0 l 4.772318,-2.75486 4.772319,-2.75539 c 4.364167,-2.51965 4.755322,-3.30963 4.7718,-8.26564 v -5.51026 -5.51026 c 0,-5.0393 -0.667441,-5.94082 -4.7718,-8.26565 l -4.772319,-2.75539 -4.772318,-2.75487 c -2.182083,-1.25982 -3.515069,-1.88951 -4.829162,-1.88928 z m 0.01344,5.15214 c 0.994489,-1.8e-4 2.003697,0.47646 3.655073,1.42988 l 3.611149,2.08515 3.611666,2.08462 c 3.106132,1.75941 3.611666,2.44175 3.611666,6.25544 v 4.17028 4.17029 c -0.01247,3.75065 -0.308915,4.34807 -3.611666,6.25492 l -3.611666,2.08514 -3.611149,2.08515 c -3.393226,1.93975 -3.920583,1.90684 -7.223332,0 L 32.066266,143.8991 28.4546,141.81396 c -3.415087,-1.98254 -3.611666,-2.44123 -3.611666,-6.25492 v -4.17029 -4.17028 c -0.03903,-3.85364 0.308915,-4.34859 3.611666,-6.25544 l 3.611666,-2.08462 3.611149,-2.08515 c 1.593628,-0.95271 2.573767,-1.42971 3.568259,-1.42988 z" />
      <path
         id="path909-62-3-3-1"
         style="fill:#f3a867;fill-opacity:1;stroke-width:0.564999;paint-order:fill markers stroke"
         d="m 58.270591,128.71345 -3.5e-5,-2.75532 c -10e-7,-5.0393 -0.336443,-5.76438 -4.772108,-8.26576 l -4.772025,-2.75513 -4.772025,-2.75513 c -4.364162,-2.51965 -5.019408,-2.59807 -9.544409,1.2e-4 l -4.772398,2.75525 -4.771678,2.75507 c -2.182082,1.25984 -3.369572,2.03505 -4.014303,3.14088 l 4.45661,2.58526 c 0.487879,-0.83703 1.38671,-1.42375 3.038081,-2.37717 l 3.611372,-2.08478 3.611615,-2.08522 c 3.424475,-1.96628 3.920002,-1.90718 7.222754,-3.3e-4 l 3.611577,2.08514 3.61156,2.08514 c 3.356859,1.89305 0,0 6.477411,3.73973 0,0 0.82996,0.41521 1.236763,1.5974 0.406834,1.18215 0.541263,2.33481 0.541263,2.33481 z"
         sodipodi:nodetypes="ccccsccccccccsccczc" />
      <text
         xml:space="preserve"
         style="font-style:normal;font-weight:normal;font-size:11.7303px;line-height:1.35;font-family:sans-serif;fill:#ffffff;fill-opacity:1;stroke:none;stroke-width:0.159957"
         x="24.868357"
         y="142.39156"
         id="text9536"
         transform="scale(1.0501428,0.95225145)"><tspan
           sodipodi:role="line"
           id="tspan9534"
           style="font-style:normal;font-variant:normal;font-weight:bold;font-stretch:normal;font-size:11.7303px;font-family:'SF Pro Rounded';-inkscape-font-specification:'SF Pro Rounded Bold';fill:#ffffff;fill-opacity:1;stroke-width:0.159957"
           x="24.868357"
           y="142.39156">KMS</tspan></text>
      <path
         id="path909-62-3-3-18"
         style="fill:url(#linearGradient40581);fill-opacity:1;stroke-width:0.564999;paint-order:fill markers stroke"
         d="m 28.269352,115.76583 -2.38616,1.37769 c -4.364166,2.51965 -4.75317,9.58689 -4.75317,9.58689 0,0 3.695723,0.16946 3.697297,-0.02 0.02574,-3.09724 0.533866,-3.95521 3.519045,-5.67619 0,0 0.198283,-4.88341 1.034724,-5.91529 -1.111736,0.64689 -1.11174,0.64686 -1.11174,0.64686 z"
         sodipodi:nodetypes="cccscccc" />
      <path
         id="path909-62-3-3"
         style="fill:#da6e11;fill-opacity:1;stroke-width:0.564999;paint-order:fill markers stroke"
         d="m 27.326672,116.21107 -2.38616,1.37769 c -4.364166,2.51965 -4.823888,3.17356 -4.772318,8.26565 v 5.51026 5.51026 c 0,5.0393 0.259714,5.64597 4.772318,8.26564 l 4.772319,2.75539 4.7718,2.75486 c 1.091041,0.62991 1.952838,1.10506 2.701879,1.42342 0.749042,0.31835 1.385328,0.47991 2.025351,0.48263 0,0 5.678704,-7.67989 3.885753,-6.67139 -3.190892,1.79482 -3.875103,1.51922 -3.875103,1.51922 -0.968836,-0.004 -1.926362,-0.48905 -3.577737,-1.44247 l -3.611153,-2.08515 -3.611666,-2.08514 c -3.415087,-1.98254 -3.611666,-2.44123 -3.611666,-6.25492 0.0091,-5.65534 0.06899,-12.18058 0.06884,-13.94985 0,0 -0.02121,-2.4139 0.815231,-3.44578 0.836443,-1.03189 1.632303,-1.93032 1.632303,-1.93032 z"
         sodipodi:nodetypes="ccccscccscscccccczcc" />
      <path
         id="path909-62-3-3-18-4"
         style="fill:url(#linearGradient43439);fill-opacity:1;stroke-width:0.564999;paint-order:fill markers stroke"
         d="m 31.24325,148.71915 2.386194,1.37763 c 4.364164,2.51966 10.679075,-0.67708 10.679075,-0.67708 0,0 -1.701105,-3.28532 -1.865969,-3.19195 -2.695158,1.52633 -3.692245,1.51526 -6.675247,-0.20949 0,0 -4.328298,2.26999 -5.640153,2.06155 1.116091,0.63935 1.116067,0.63937 1.116067,0.63937 z"
         sodipodi:nodetypes="cccscccc" />
      <path
         id="path909-62-3-3-9"
         style="fill:#ef8c36;fill-opacity:1;stroke-width:0.564999;paint-order:fill markers stroke"
         d="m 32.100179,149.31292 2.386194,1.37763 c 4.364164,2.51965 5.160328,2.59083 9.544422,1.2e-4 l 4.772025,-2.75513 4.772025,-2.75513 c 4.364162,-2.51965 4.759697,-3.0479 4.772095,-8.26577 l 7.9e-5,-5.51064 -1.22e-4,-5.50993 c -2e-6,-1.25983 -0.01941,-2.24374 -0.118221,-3.05161 -0.09882,-0.80786 -0.27705,-1.43968 -0.594706,-1.99532 0,0 -9.490332,-1.07796 -7.72047,-0.0295 3.149806,1.86598 3.253235,2.59632 3.253235,2.59632 0.480954,0.84104 0.539651,1.91281 0.539653,3.81965 l -2.17e-4,4.16992 4.9e-5,4.17037 c -0.0094,3.94882 -0.308334,4.34841 -3.611086,6.25525 -4.902219,2.81979 -10.583187,6.03055 -12.115345,6.91531 0,0 -2.079894,1.22532 -3.391748,1.01688 -1.311865,-0.20844 -2.487858,-0.44846 -2.487858,-0.44846 z"
         sodipodi:nodetypes="ccccscccscscccccczcc" />
      <path
         id="path909-62-3-3-18-4-5"
         style="fill:url(#linearGradient46553);fill-opacity:1;stroke-width:0.564999;paint-order:fill markers stroke"
         d="m 58.299938,129.67571 -3.4e-5,-2.75532 c 7e-6,-5.03931 -5.925906,-8.90981 -5.925906,-8.90981 0,0 -1.994618,3.11586 -1.831325,3.21195 2.669419,1.57091 3.158376,2.43995 3.156199,5.88568 0,0 4.130018,2.61342 4.605432,3.85374 -0.0044,-1.28624 -0.0043,-1.28623 -0.0043,-1.28623 z"
         sodipodi:nodetypes="cccscccc" />
      <path
         id="path909-62-3-3-9-5"
         style="fill:#f3a867;fill-opacity:1;stroke-width:0.564999;paint-order:fill markers stroke"
         d="m 58.385694,128.6367 -3.5e-5,-2.75532 c -10e-7,-5.0393 -0.336439,-5.76439 -4.772107,-8.26577 l -4.772025,-2.75513 -4.772025,-2.75513 c -4.364162,-2.51965 -5.019407,-2.59807 -9.544414,1.3e-4 l -4.772394,2.75525 -4.771678,2.75507 c -1.091044,0.62992 -1.933431,1.13868 -2.583662,1.62819 -0.650217,0.48951 -1.108274,0.95977 -1.430644,1.51269 0,0 3.811625,8.75785 3.834687,6.70087 0.04108,-3.6608 0.621861,-4.11554 0.621861,-4.11554 0.487885,-0.83704 1.386717,-1.42376 3.038088,-2.37718 l 3.611365,-2.08477 3.611622,-2.08523 c 3.424478,-1.96627 3.92,-1.90718 7.222748,-3.3e-4 4.893119,2.83555 10.514203,6.15003 12.046507,7.03454 0,0 2.101105,1.18858 2.576518,2.4289 0.475418,1.24033 0.855551,2.37878 0.855551,2.37878 z"
         sodipodi:nodetypes="ccccscccscscccccczcc" />
      <path
         id="path909-62-3-3-18-7"
         style="fill:url(#linearGradient50387);fill-opacity:1;stroke-width:0.564999;paint-order:fill markers stroke"
         d="m 28.269352,115.76583 -2.38616,1.37769 c -4.364166,2.51965 -4.75317,9.58689 -4.75317,9.58689 0,0 3.695723,0.16946 3.697297,-0.02 0.02574,-3.09724 0.533866,-3.95521 3.519045,-5.67619 0,0 0.198283,-4.88341 1.034724,-5.91529 -1.111736,0.64689 -1.11174,0.64686 -1.11174,0.64686 z"
         sodipodi:nodetypes="cccscccc" />
      <path
         id="path909-62-3-3-4"
         style="fill:#da6e11;fill-opacity:1;stroke-width:0.564999;paint-order:fill markers stroke"
         d="m 27.326672,116.21107 -2.38616,1.37769 c -4.364166,2.51965 -4.823888,3.17356 -4.772318,8.26565 v 5.51026 5.51026 c 0,5.0393 4.772318,8.26564 4.772318,8.26564 l 3.481443,-3.34863 c 0,0 -3.611666,-2.44123 -3.611666,-6.25492 0.0091,-5.65534 0.06899,-12.18058 0.06884,-13.94985 0,0 -0.02121,-2.4139 0.815231,-3.44578 0.836443,-1.03189 1.632303,-1.93032 1.632303,-1.93032 z"
         sodipodi:nodetypes="ccccscccczcc" />
      <rect
         style="fill:#c9c8d0;fill-opacity:1;stroke:none;stroke-width:0.513274;stroke-opacity:1;paint-order:fill markers stroke"
         id="rect50838"
         width="35.289856"
         height="11.011496"
         x="21.84433"
         y="138.77138"
         ry="1.0697942" />
      <text
         xml:space="preserve"
         style="font-style:normal;font-weight:normal;font-size:8.59865px;line-height:1.35;font-family:sans-serif;fill:#000000;fill-opacity:1;stroke:none;stroke-width:0.117253"
         x="22.495186"
         y="154.54294"
         id="text9536-3"
         transform="scale(1.0501428,0.95225145)"><tspan
           sodipodi:role="line"
           id="tspan9534-0"
           style="font-style:normal;font-variant:normal;font-weight:bold;font-stretch:normal;font-size:8.59865px;font-family:'SF Pro Rounded';-inkscape-font-specification:'SF Pro Rounded Bold';fill:#000000;fill-opacity:1;stroke-width:0.117253"
           x="22.495186"
           y="154.54294">EDITOR</tspan></text>
    </g>
  </g>
</svg>
